<svg width="100" height="100" viewBox="0 0 100 100" fill="none" xmlns="http://www.w3.org/2000/svg">
<rect width="100" height="100" rx="50" fill="#B1B0B0"/>
<path d="M64 65.75V62.25C64 60.3935 63.2625 58.613 61.9497 57.3003C60.637 55.9875 58.8565 55.25 57 55.25H43C41.1435 55.25 39.363 55.9875 38.0503 57.3003C36.7375 58.613 36 60.3935 36 62.25V65.75" stroke="#474646" stroke-width="2" stroke-linecap="round" stroke-linejoin="round"/>
<path d="M50 48.25C53.866 48.25 57 45.116 57 41.25C57 37.384 53.866 34.25 50 34.25C46.134 34.25 43 37.384 43 41.25C43 45.116 46.134 48.25 50 48.25Z" stroke="#474646" stroke-width="2" stroke-linecap="round" stroke-linejoin="round"/>
</svg>
